<svg width="320" height="214" viewBox="0 0 320 214" fill="none" xmlns="http://www.w3.org/2000/svg">
<path d="M94.7157 154.958C126.757 119.645 158.431 148.384 184.822 119.306C211.205 90.2291 186.317 55.6717 209.61 30.0001" stroke="#F84D79" stroke-width="7" stroke-miterlimit="10" stroke-linecap="round"/>
<path d="M219.869 65.2758C227.259 65.2758 233.269 71.2864 233.269 78.6755V83.8422C233.269 91.2313 227.259 97.2419 219.869 97.2419H209.189V65.2852H219.869M219.869 56.8083H200.703V105.728H219.869C231.956 105.728 241.746 95.9292 241.746 83.8516V78.6849C241.746 66.5979 231.947 56.8083 219.869 56.8083Z" fill="#6DC5F4"/>
<path d="M240.61 59.4936C208.569 94.8068 178.965 63.7769 152.583 92.8626C126.2 121.94 148.422 154.84 125.129 180.512" stroke="#F84D79" stroke-width="7" stroke-miterlimit="10" stroke-linecap="round"/>
<path d="M124.544 65.2762V97.233H113.863C106.474 97.233 100.464 91.2224 100.464 83.8333V78.6666C100.464 71.2775 106.474 65.2668 113.863 65.2668H124.544M133.021 56.79H113.854C101.767 56.79 91.9774 66.589 91.9774 78.6666V83.8333C91.9774 95.9202 101.776 105.71 113.854 105.71H133.021V56.79Z" fill="#6DC5F4"/>
<path d="M177.091 128.28C194.814 128.28 209.189 113.915 209.189 96.1828L209.292 56.79H124.074L123.971 96.1828C123.971 113.905 138.336 128.28 156.068 128.28H161.244V152.96C161.244 156.993 157.981 160.256 153.949 160.256H138.749C134.717 160.256 131.454 163.519 131.454 167.551V172.887H201.697V167.551C201.697 163.519 198.434 160.256 194.401 160.256H179.201C175.169 160.256 171.906 156.993 171.906 152.96V128.28H177.082H177.091Z" fill="#AAE1FF"/>
<path d="M140.427 96.1918C140.427 85.6896 135.842 87.0492 135.842 74.6247C135.842 62.2002 140.943 56.7991 140.943 56.7991H123.971V96.1918C123.971 113.914 138.336 128.289 156.068 128.289H167.94C157.972 128.289 149.064 123.741 143.175 116.606C138.599 111.054 140.437 106.694 140.437 96.1918H140.427Z" fill="#6DC5F4"/>
<path d="M123.256 43.78C124.244 40.9358 123.946 41.2336 126.79 40.246C127.17 40.1153 127.17 39.5755 126.79 39.4448C123.946 38.4572 124.244 38.7549 123.256 35.9108C123.125 35.5307 122.586 35.5307 122.455 35.9108C121.467 38.7549 121.765 38.4572 118.921 39.4448C118.541 39.5755 118.541 40.1153 118.921 40.246C121.765 41.2336 121.467 40.9358 122.455 43.78C122.586 44.16 123.125 44.16 123.256 43.78Z" fill="white"/>
<path d="M185.453 87.871C189.513 75.8624 188.289 77.1194 199.981 72.9496C201.544 72.3977 201.544 70.1186 199.981 69.5667C188.289 65.3969 189.513 66.654 185.453 54.6453C184.915 53.0408 182.696 53.0408 182.159 54.6453C178.099 66.654 179.323 65.3969 167.63 69.5667C166.068 70.1186 166.068 72.3977 167.63 72.9496C179.323 77.1194 178.099 75.8624 182.159 87.871C182.696 89.4756 184.915 89.4756 185.453 87.871Z" fill="white"/>
<g clip-path="url(#clip0_3252_13178)">
<path d="M77.7514 125.042C79.8366 119.036 79.2079 119.665 85.2131 117.58C86.0155 117.304 86.0155 116.164 85.2131 115.888C79.2079 113.803 79.8366 114.431 77.7514 108.426C77.4754 107.624 76.3357 107.624 76.0597 108.426C73.9745 114.431 74.6031 113.803 68.5979 115.888C67.7955 116.164 67.7955 117.304 68.5979 117.58C74.6031 119.665 73.9745 119.036 76.0597 125.042C76.3357 125.844 77.4754 125.844 77.7514 125.042Z" fill="white"/>
</g>
<path d="M241.694 155.765C244.547 147.549 243.687 148.409 251.903 145.556C253.001 145.178 253.001 143.619 251.903 143.241C243.687 140.388 244.547 141.248 241.694 133.032C241.316 131.934 239.757 131.934 239.379 133.032C236.526 141.248 237.386 140.388 229.17 143.241C228.072 143.619 228.072 145.178 229.17 145.556C237.386 148.409 236.526 147.549 239.379 155.765C239.757 156.863 241.316 156.863 241.694 155.765Z" fill="white"/>
<defs>
<clipPath id="clip0_3252_13178">
<rect width="17.8163" height="17.8163" fill="white" transform="translate(68 107.828)"/>
</clipPath>
</defs>
</svg>
