<svg width="920" height="740" viewBox="0 0 920 740" fill="none" xmlns="http://www.w3.org/2000/svg">
<g clip-path="url(#clip0_3025_3473)">
<path d="M429.467 296.691C427.105 287.457 424.111 278.275 420.457 269.24C384.661 180.656 283.72 137.796 194.995 173.505C106.28 209.214 59.5145 299.458 95.3192 388.043C122.733 455.883 200.336 503.793 275.026 506.474L301.741 275.696L429.467 296.691Z" fill="#705CEA"/>
<path d="M669.25 336.14L429.606 296.726C450.351 378.086 420.986 463.709 341.307 495.822C320.527 504.196 297.958 507.611 275.117 506.793L251.618 703.713L600.189 703.713C620.5 622 675.556 585.011 675.556 585.011L669.242 336.13L669.25 336.14Z" fill="#51C6F1"/>
<path d="M429.957 296.361L302.043 275.323L275.261 506.755C298.133 507.573 320.733 504.153 341.543 495.766C421.332 463.602 450.739 377.838 429.966 296.362L429.957 296.361Z" fill="#B9E8F9"/>
<path opacity="0.3" d="M531 126.706H525.294V121H520.706V126.706H515V131.294H520.706V137H525.294V131.294H531V126.706Z" fill="#B0F4E7"/>
<g filter="url(#filter0_d_3025_3473)">
<path d="M376.855 61.3811H232.752C218.56 61.3811 207.056 72.8927 207.056 87.093V382.961C207.056 397.162 218.56 408.673 232.752 408.673H376.855C391.047 408.673 402.551 397.162 402.551 382.961V87.093C402.551 72.8927 391.047 61.3811 376.855 61.3811Z" fill="#F2F7FF"/>
</g>
<g opacity="0.5">
<path d="M380.795 101.16H379.43" stroke="#B6C1DD" stroke-width="0.7" stroke-miterlimit="10" stroke-dasharray="3 3"/>
<path d="M371.432 101.16H236.874" stroke="#B6C1DD" stroke-width="0.7" stroke-miterlimit="10" stroke-dasharray="3 3"/>
<path d="M232.87 101.16H231.505" stroke="#B6C1DD" stroke-width="0.7" stroke-miterlimit="10" stroke-dasharray="3 3"/>
<path d="M380.795 193.109H379.43" stroke="#B6C1DD" stroke-width="0.7" stroke-miterlimit="10" stroke-dasharray="3 3"/>
<path d="M371.432 193.109H236.874" stroke="#B6C1DD" stroke-width="0.7" stroke-miterlimit="10" stroke-dasharray="3 3"/>
<path d="M232.87 193.109H231.505" stroke="#B6C1DD" stroke-width="0.7" stroke-miterlimit="10" stroke-dasharray="3 3"/>
<path d="M380.795 285.058H379.43" stroke="#B6C1DD" stroke-width="0.7" stroke-miterlimit="10" stroke-dasharray="3 3"/>
<path d="M371.432 285.058H236.874" stroke="#B6C1DD" stroke-width="0.7" stroke-miterlimit="10" stroke-dasharray="3 3"/>
<path d="M232.87 285.058H231.505" stroke="#B6C1DD" stroke-width="0.7" stroke-miterlimit="10" stroke-dasharray="3 3"/>
<path d="M380.795 377.016H379.43" stroke="#B6C1DD" stroke-width="0.7" stroke-miterlimit="10" stroke-dasharray="3 3"/>
<path d="M380.5 377.016H230.5" stroke="#B6C1DD" stroke-miterlimit="10"/>
<path d="M232.87 377.016H231.505" stroke="#B6C1DD" stroke-width="0.7" stroke-miterlimit="10" stroke-dasharray="3 3"/>
<path d="M380.795 147.13H379.43" stroke="#B6C1DD" stroke-width="0.7" stroke-miterlimit="10" stroke-dasharray="3 3"/>
<path d="M371.432 147.13H236.874" stroke="#B6C1DD" stroke-width="0.7" stroke-miterlimit="10" stroke-dasharray="3 3"/>
<path d="M232.87 147.13H231.505" stroke="#B6C1DD" stroke-width="0.7" stroke-miterlimit="10" stroke-dasharray="3 3"/>
<path d="M380.795 239.088H379.43" stroke="#B6C1DD" stroke-width="0.7" stroke-miterlimit="10" stroke-dasharray="3 3"/>
<path d="M371.432 239.088H236.874" stroke="#B6C1DD" stroke-width="0.7" stroke-miterlimit="10" stroke-dasharray="3 3"/>
<path d="M232.87 239.088H231.505" stroke="#B6C1DD" stroke-width="0.7" stroke-miterlimit="10" stroke-dasharray="3 3"/>
<path d="M380.795 331.037H379.43" stroke="#B6C1DD" stroke-width="0.7" stroke-miterlimit="10" stroke-dasharray="3 3"/>
<path d="M371.432 331.037H236.874" stroke="#B6C1DD" stroke-width="0.7" stroke-miterlimit="10" stroke-dasharray="3 3"/>
<path d="M232.87 331.037H231.505" stroke="#B6C1DD" stroke-width="0.7" stroke-miterlimit="10" stroke-dasharray="3 3"/>
</g>
<g style="mix-blend-mode:multiply">
<path d="M253.771 265.947H241.141C237.915 265.947 235.299 268.564 235.299 271.792V370.998C235.299 374.226 237.915 376.843 241.141 376.843H253.771C256.997 376.843 259.612 374.226 259.612 370.998V271.792C259.612 268.564 256.997 265.947 253.771 265.947Z" fill="#AAE1FF"/>
<path d="M283.379 240.299H270.75C267.524 240.299 264.908 242.916 264.908 246.144V371.171C264.908 374.399 267.524 377.016 270.75 377.016H283.379C286.606 377.016 289.221 374.399 289.221 371.171V246.144C289.221 242.916 286.606 240.299 283.379 240.299Z" fill="#AAE1FF"/>
<path d="M312.979 253.856H300.349C297.123 253.856 294.508 256.473 294.508 259.701V370.597C294.508 373.825 297.123 376.442 300.349 376.442H312.979C316.205 376.442 318.821 373.825 318.821 370.597V259.701C318.821 256.473 316.205 253.856 312.979 253.856Z" fill="#AAE1FF"/>
<path d="M342.588 208.614H329.958C326.732 208.614 324.116 211.231 324.116 214.46V370.697C324.116 373.926 326.732 376.543 329.958 376.543H342.588C345.814 376.543 348.429 373.926 348.429 370.697V214.46C348.429 211.231 345.814 208.614 342.588 208.614Z" fill="#AAE1FF"/>
<path d="M372.187 106.459H359.558C356.332 106.459 353.716 109.076 353.716 112.304V370.916C353.716 374.144 356.332 376.761 359.558 376.761H372.187C375.414 376.761 378.029 374.144 378.029 370.916V112.304C378.029 109.076 375.414 106.459 372.187 106.459Z" fill="#CDC7F8"/>
</g>
<path d="M283.671 235.027H270.459C267.393 235.027 264.908 237.514 264.908 240.581V253.801C264.908 256.868 267.393 259.355 270.459 259.355H283.671C286.736 259.355 289.221 256.868 289.221 253.801V240.581C289.221 237.514 286.736 235.027 283.671 235.027Z" fill="#1993D8"/>
<path d="M313.27 247.191H300.058C296.993 247.191 294.508 249.678 294.508 252.745V265.965C294.508 269.033 296.993 271.519 300.058 271.519H313.27C316.336 271.519 318.821 269.033 318.821 265.965V252.745C318.821 249.678 316.336 247.191 313.27 247.191Z" fill="#1993D8"/>
<path d="M342.879 193H329.667C326.602 193 324.116 195.487 324.116 198.554V211.774C324.116 214.841 326.602 217.328 329.667 217.328H342.879C345.944 217.328 348.429 214.841 348.429 211.774V198.554C348.429 195.487 345.944 193 342.879 193Z" fill="#1993D8"/>
<path d="M372.479 101.16H359.267C356.201 101.16 353.716 103.646 353.716 106.714V119.934C353.716 123.001 356.201 125.488 359.267 125.488H372.479C375.544 125.488 378.029 123.001 378.029 119.934V106.714C378.029 103.646 375.544 101.16 372.479 101.16Z" fill="#372CBF"/>
<path d="M254.062 262.405H240.85C237.784 262.405 235.299 264.892 235.299 267.959V281.179C235.299 284.247 237.784 286.733 240.85 286.733H254.062C257.127 286.733 259.612 284.247 259.612 281.179V267.959C259.612 264.892 257.127 262.405 254.062 262.405Z" fill="#1993D8"/>
<g clip-path="url(#clip1_3025_3473)">
<path opacity="0.1" d="M490 233.404H473.596V217H460.404V233.404H444V246.596H460.404V263H473.596V246.596H490V233.404Z" fill="#B0F4E7"/>
</g>
<path opacity="0.2" d="M495.94 79.32H485.62V69H477.32V79.32H467V87.62H477.32V97.94H485.62V87.62H495.94V79.32Z" fill="#B0F4E7"/>
<g filter="url(#filter1_d_3025_3473)">
<path d="M447.265 115H404.735C394.94 115 387 122.94 387 132.735V175.265C387 185.06 394.94 193 404.735 193H447.265C457.06 193 465 185.06 465 175.265V132.735C465 122.94 457.06 115 447.265 115Z" fill="#09BB9F"/>
</g>
<path d="M416.681 147.952C416.763 148.029 416.835 148.091 416.896 148.153C420.204 151.46 423.512 154.768 426.819 158.075C427.09 158.346 427.362 158.346 427.636 158.075C431.452 154.264 435.263 150.453 439.079 146.643C439.248 146.478 439.264 146.386 439.084 146.206C437.841 144.979 436.603 143.741 435.371 142.503C434.836 141.964 434.595 141.332 434.867 140.582C435.124 139.889 435.602 139.406 436.336 139.237C437.24 139.026 438.149 138.841 439.058 138.641C440.394 138.348 441.724 138.06 443.059 137.768C444.759 137.398 446.459 137.028 448.154 136.653C449.479 136.366 450.804 136.073 452.129 135.785C452.494 135.708 452.853 135.611 453.223 135.559C454.482 135.385 455.55 136.319 455.457 137.434C455.411 137.973 455.324 138.517 455.211 139.047C455 140.063 454.764 141.07 454.543 142.082C454.276 143.299 454.009 144.516 453.742 145.728C453.449 147.069 453.156 148.409 452.869 149.75C452.704 150.531 452.561 151.316 452.381 152.097C452.16 153.052 451.934 154.008 451.677 154.953C451.492 155.651 450.963 156.011 450.296 156.185C449.602 156.365 449.017 156.139 448.524 155.651C447.327 154.465 446.141 153.273 444.949 152.082C444.59 151.722 444.6 151.732 444.251 152.087C443.403 152.95 442.546 153.802 441.693 154.655C436.973 159.37 432.253 164.09 427.533 168.804C427.235 169.102 427.24 169.097 426.932 168.794C424.226 166.087 421.524 163.381 418.817 160.674C418.186 160.037 417.549 159.405 416.917 158.769C416.686 158.538 416.65 158.558 416.424 158.799C415.772 159.477 415.104 160.145 414.436 160.813C410.353 164.896 406.265 168.979 402.182 173.062C401.905 173.339 401.915 173.329 401.653 173.062C400.99 172.379 400.328 171.696 399.655 171.023C398.705 170.073 397.744 169.133 396.779 168.193C396.594 168.013 396.686 167.9 396.825 167.767C398.361 166.236 399.896 164.706 401.432 163.17C406.455 158.147 411.478 153.124 416.501 148.101C416.547 148.055 416.593 148.019 416.671 147.952H416.681Z" fill="white"/>
</g>
<defs>
<filter id="filter0_d_3025_3473" x="177.056" y="31.3811" width="255.496" height="407.292" filterUnits="userSpaceOnUse" color-interpolation-filters="sRGB">
<feFlood flood-opacity="0" result="BackgroundImageFix"/>
<feColorMatrix in="SourceAlpha" type="matrix" values="0 0 0 0 0 0 0 0 0 0 0 0 0 0 0 0 0 0 127 0" result="hardAlpha"/>
<feOffset/>
<feGaussianBlur stdDeviation="15"/>
<feColorMatrix type="matrix" values="0 0 0 0 0 0 0 0 0 0 0 0 0 0 0 0 0 0 0.15 0"/>
<feBlend mode="normal" in2="BackgroundImageFix" result="effect1_dropShadow_3025_3473"/>
<feBlend mode="normal" in="SourceGraphic" in2="effect1_dropShadow_3025_3473" result="shape"/>
</filter>
<filter id="filter1_d_3025_3473" x="357" y="85" width="138" height="138" filterUnits="userSpaceOnUse" color-interpolation-filters="sRGB">
<feFlood flood-opacity="0" result="BackgroundImageFix"/>
<feColorMatrix in="SourceAlpha" type="matrix" values="0 0 0 0 0 0 0 0 0 0 0 0 0 0 0 0 0 0 127 0" result="hardAlpha"/>
<feOffset/>
<feGaussianBlur stdDeviation="15"/>
<feComposite in2="hardAlpha" operator="out"/>
<feColorMatrix type="matrix" values="0 0 0 0 0.0156863 0 0 0 0 0.0941176 0 0 0 0 0.168627 0 0 0 0.15 0"/>
<feBlend mode="multiply" in2="BackgroundImageFix" result="effect1_dropShadow_3025_3473"/>
<feBlend mode="normal" in="SourceGraphic" in2="effect1_dropShadow_3025_3473" result="shape"/>
</filter>
<clipPath id="clip0_3025_3473">
<rect width="920" height="740" fill="white"/>
</clipPath>
<clipPath id="clip1_3025_3473">
<rect width="46" height="46" fill="white" transform="translate(444 217)"/>
</clipPath>
</defs>
</svg>
