<svg width="920" height="740" viewBox="0 0 920 740" fill="none" xmlns="http://www.w3.org/2000/svg">
<g clip-path="url(#clip0_8803_6332)">
<path opacity="0.4" d="M392.219 99.1033L403.45 90.1409L410.94 102.405C415.787 110.343 425.479 113.874 434.295 110.909L447.909 106.329L450.758 120.412C452.6 129.53 460.499 136.166 469.799 136.403L484.157 136.764L482.02 150.978C480.637 160.178 485.794 169.115 494.447 172.515L507.815 177.767L500.947 190.391C496.502 198.567 498.294 208.726 505.261 214.886L516.026 224.398L505.261 233.909C498.286 240.07 496.502 250.228 500.947 258.404L507.815 271.029L494.447 276.28C485.794 279.68 480.637 288.618 482.02 297.818L484.157 312.032L469.799 312.392C460.499 312.622 452.6 319.257 450.758 328.384L447.909 342.466L434.295 337.887C425.479 334.921 415.787 338.452 410.94 346.391L403.45 358.655L392.219 349.692C384.949 343.892 374.635 343.892 367.366 349.692L356.134 358.655L348.644 346.391C343.798 338.452 334.105 334.921 325.289 337.887L311.675 342.466L308.827 328.384C306.985 319.266 299.085 312.63 289.786 312.392L275.427 312.032L277.564 297.818C278.947 288.618 273.79 279.68 265.137 276.28L251.769 271.029L258.637 258.404C263.083 250.228 261.29 240.07 254.323 233.909L243.559 224.398L254.323 214.886C261.298 208.726 263.083 198.567 258.637 190.391L251.769 177.767L265.137 172.515C273.79 169.115 278.947 160.178 277.564 150.978L275.427 136.764L289.786 136.403C299.085 136.174 306.985 129.538 308.827 120.412L311.675 106.329L325.289 110.909C334.105 113.874 343.798 110.343 348.644 102.405L356.134 90.1409L367.366 99.1033C374.635 104.904 384.949 104.904 392.219 99.1033Z" fill="#323B60"/>
<path d="M248.404 43.2886C248.404 43.2886 247.88 69.8319 224.738 69.8319C247.88 69.8319 248.404 96.3753 248.404 96.3753C248.404 96.3753 248.928 69.8319 272.07 69.8319C248.928 69.8319 248.404 43.2886 248.404 43.2886Z" fill="white" stroke="black" stroke-linejoin="round"/>
<path d="M412.233 260.387C412.233 260.387 411.905 276.952 397.465 276.952C411.913 276.952 412.233 293.517 412.233 293.517C412.233 293.517 412.56 276.952 427 276.952C412.552 276.952 412.233 260.387 412.233 260.387Z" fill="white" stroke="black" stroke-linejoin="round"/>
<path d="M57.9455 196.486C57.9455 196.486 57.7572 205.899 49.5547 205.899C57.7572 205.899 57.9455 215.312 57.9455 215.312C57.9455 215.312 58.1337 205.899 66.3362 205.899C58.1337 205.899 57.9455 196.486 57.9455 196.486Z" fill="white" stroke="black" stroke-linejoin="round"/>
<path d="M364.352 335.052L338.729 335.88L334.112 292.616L363.206 291.436C364.147 291.37 364.867 290.551 364.802 289.601C364.737 288.651 363.918 287.938 362.968 288.003L333.752 289.191L328.366 238.743L358.605 235.261C359.546 235.195 360.267 234.376 360.201 233.426C360.136 232.475 359.317 231.763 358.368 231.828L328.005 235.318L323.855 196.453L356.297 191.153C358.171 190.842 359.44 189.08 359.137 187.204C358.834 185.328 357.066 184.058 355.191 184.362L232.146 204.449L230.296 188.163C229.657 183.534 231.777 178.905 235.69 176.366L246.783 169.165C247.577 168.649 247.806 167.584 247.29 166.789C246.774 165.994 245.71 165.765 244.916 166.281L233.824 173.482C228.798 176.743 226.072 182.69 226.89 188.638L228.912 206.399L40.2794 349.299C38.7649 350.446 38.4702 352.6 39.6163 354.116C40.5495 355.345 42.1458 355.771 43.5211 355.279C43.8403 355.165 44.1514 355.001 44.4297 354.788L78.3858 329.064C78.3858 329.064 78.3858 329.08 78.4021 329.088L96.4444 353.665L66.4258 377.169C65.6891 377.767 65.5745 378.849 66.1721 379.586C66.6469 380.168 67.4246 380.364 68.0876 380.119C68.2677 380.053 68.4314 379.963 68.587 379.84L98.4745 356.434L123.098 389.974L95.4866 412.97C94.7498 413.568 94.6352 414.65 95.2246 415.387C95.6994 415.969 96.4771 416.165 97.1484 415.928C97.3203 415.862 97.4922 415.772 97.6477 415.649L125.145 392.751L143.113 417.222L119.922 435.27C118.923 436.048 118.743 437.49 119.521 438.489C120.143 439.292 121.199 439.571 122.108 439.243C122.329 439.161 122.542 439.046 122.738 438.891L146.339 420.532C146.568 420.548 146.797 420.532 147.018 420.45C147.182 420.392 147.329 420.31 147.477 420.204C147.829 419.934 148.05 419.557 148.123 419.147L245.342 343.499L258.898 343.064L142.27 435.868C141.28 436.654 141.116 438.096 141.902 439.087C142.532 439.874 143.572 440.144 144.472 439.817C144.702 439.735 144.923 439.612 145.119 439.456L266.568 342.81L289.072 342.081L169.751 438.17C168.769 438.965 168.605 440.406 169.399 441.398C170.029 442.184 171.069 442.438 171.961 442.119C172.191 442.037 172.42 441.914 172.624 441.75L296.693 341.844L329.962 340.771L202.004 439.03C200.998 439.8 200.817 441.242 201.587 442.25C202.209 443.061 203.265 443.339 204.174 443.012C204.395 442.93 204.599 442.815 204.796 442.668L337.812 340.525L364.524 339.665C365.784 339.624 366.783 338.567 366.742 337.297C366.701 336.027 365.645 335.036 364.376 335.077L364.352 335.052ZM330.297 289.331L294.671 290.781L290.447 243.109L324.944 239.136L330.297 289.331ZM158.127 309.713L179.026 293.345L195.693 329.514L176.849 345.211L158.135 309.713H158.127ZM174.139 347.456L153.281 364.823L131.89 330.252L155.368 311.868L174.131 347.464L174.139 347.456ZM181.809 291.166L202.602 274.879L217.239 311.573L198.435 327.237L181.817 291.166H181.809ZM205.418 272.675L233.898 250.376L238.809 293.607L220.014 309.263L205.426 272.675H205.418ZM237.229 249.245L255.705 247.115L259.684 292.206L242.19 292.919L237.229 249.245ZM286.739 240.07L258.816 243.281L255.665 207.595L283.465 203.057L286.739 240.07ZM259.119 246.722L287.042 243.502L291.241 290.92L263.122 292.067L259.119 246.722ZM324.584 235.711L290.153 239.677L286.862 202.499L320.458 197.011L324.584 235.711ZM234.061 211.118L252.259 208.144L255.394 243.674L236.828 245.813L232.981 211.937L234.061 211.118ZM229.805 214.346L233.447 246.386C233.39 246.419 233.325 246.443 233.275 246.484L204.092 269.341L193.213 242.069L190.372 244.223L201.276 271.553L180.336 287.954L168.237 261.689C168.155 261.517 168.04 261.37 167.917 261.239L229.821 214.346H229.805ZM165.175 263.303L177.536 290.133L156.49 306.617L142.966 280.966C142.852 280.761 142.696 280.598 142.524 280.458L165.175 263.295V263.303ZM81.1281 326.999C81.1281 326.999 81.1199 326.991 81.1118 326.983L139.896 282.457C139.929 282.531 139.954 282.613 140.003 282.687L153.755 308.771L130.081 327.311L114.323 301.84L111.572 303.921L127.363 329.441L99.1458 351.535L81.1363 326.999H81.1281ZM101.176 354.313L129.173 332.39L150.62 367.052L125.743 387.77L101.176 354.313ZM145.807 415.1L127.773 390.539L152.446 369.993L169.129 396.954L145.815 415.1H145.807ZM171.855 394.832L155.114 367.773L175.784 350.561L191.191 379.783L171.855 394.832ZM193.941 377.645L178.478 348.316L197.175 332.742L211.549 363.939L193.941 377.645ZM214.341 361.768L199.917 330.465L218.573 314.932L231.827 348.168L214.341 361.776V361.768ZM243.082 339.402L234.651 345.965L221.348 312.613L239.276 297.687L243.967 338.985C243.647 339.058 243.344 339.198 243.082 339.402ZM247.405 338.829L242.575 296.327L259.987 295.622L263.752 338.296L247.405 338.821V338.829ZM295.269 337.059L294.983 337.289L267.191 338.19L263.425 295.483L291.544 294.344L295.318 337.027C295.318 337.027 295.285 337.043 295.269 337.059ZM298.781 337.166L294.974 294.205L330.666 292.755L335.275 335.986L298.773 337.166H298.781Z" fill="#B6C1DD" stroke="black" stroke-width="0.75" stroke-linecap="round" stroke-linejoin="round"/>
<path d="M288.259 506.199C286.802 514.392 291.198 522.027 298.083 523.256C304.967 524.485 311.729 518.832 313.186 510.64C314.643 502.447 310.247 494.812 303.363 493.583C296.478 492.354 289.717 498.007 288.259 506.199Z" fill="#62281A" stroke="black" stroke-width="0.75" stroke-linecap="round" stroke-linejoin="round"/>
<path d="M293.943 508.436C293.058 513.409 295.727 518.054 299.91 518.791C304.093 519.537 308.195 516.104 309.087 511.131C309.971 506.159 307.302 501.513 303.119 500.776C298.936 500.031 294.835 503.463 293.943 508.436Z" fill="white" stroke="black" stroke-width="0.75" stroke-linecap="round" stroke-linejoin="round"/>
<path d="M295.013 488.16L305.663 505.675C306.76 507.477 306.645 509.763 305.376 511.451C303.846 513.483 301.07 514.097 298.827 512.893L278.387 501.915L295.013 488.16Z" fill="white" stroke="black" stroke-width="0.75" stroke-linecap="round" stroke-linejoin="round"/>
<path d="M228.897 503.467C230.354 495.275 225.956 487.64 219.075 486.415C212.193 485.189 205.434 490.837 203.977 499.029C202.521 507.221 206.918 514.855 213.8 516.081C220.681 517.306 227.441 511.659 228.897 503.467Z" fill="#62281A" stroke="black" stroke-width="0.75" stroke-linecap="round" stroke-linejoin="round"/>
<path d="M209.665 501.292C208.781 506.265 211.45 510.91 215.633 511.647C219.816 512.393 223.917 508.96 224.81 503.988C225.694 499.015 223.025 494.37 218.842 493.632C214.659 492.887 210.549 496.32 209.665 501.292Z" fill="white" stroke="black" stroke-width="0.75" stroke-linecap="round" stroke-linejoin="round"/>
<path d="M210.728 481.008L221.378 498.523C222.475 500.326 222.36 502.611 221.091 504.299C219.56 506.331 216.785 506.945 214.542 505.741L194.102 494.763L210.728 481.008Z" fill="white" stroke="black" stroke-width="0.75" stroke-linecap="round" stroke-linejoin="round"/>
<path d="M315.378 439.308C316.834 431.116 312.437 423.482 305.555 422.256C298.674 421.031 291.914 426.678 290.458 434.87C289.001 443.062 293.399 450.696 300.28 451.922C307.162 453.147 313.921 447.5 315.378 439.308Z" fill="#62281A" stroke="black" stroke-width="0.75" stroke-linecap="round" stroke-linejoin="round"/>
<path d="M296.161 437.138C295.277 442.11 297.946 446.756 302.129 447.493C306.312 448.238 310.422 444.806 311.306 439.833C312.19 434.86 309.521 430.215 305.338 429.478C301.155 428.732 297.054 432.165 296.161 437.138Z" fill="white" stroke="black" stroke-width="0.75" stroke-linecap="round" stroke-linejoin="round"/>
<path d="M297.231 416.853L307.882 434.369C308.979 436.171 308.864 438.457 307.595 440.144C306.064 442.176 303.289 442.79 301.046 441.586L280.605 430.608L297.231 416.853Z" fill="white" stroke="black" stroke-width="0.75" stroke-linecap="round" stroke-linejoin="round"/>
<path d="M401.495 440.804C402.952 432.612 398.554 424.977 391.672 423.752C384.791 422.526 378.032 428.174 376.575 436.366C375.118 444.558 379.516 452.192 386.398 453.417C393.279 454.643 400.038 448.995 401.495 440.804Z" fill="#62281A" stroke="black" stroke-width="0.75" stroke-linecap="round" stroke-linejoin="round"/>
<path d="M382.271 438.629C381.387 443.601 384.055 448.247 388.238 448.984C392.422 449.729 396.523 446.297 397.415 441.324C398.299 436.351 395.63 431.706 391.447 430.969C387.264 430.223 383.155 433.656 382.271 438.629Z" fill="white" stroke="black" stroke-width="0.75" stroke-linecap="round" stroke-linejoin="round"/>
<path d="M383.341 418.344L393.991 435.86C395.088 437.662 394.973 439.948 393.705 441.635C392.174 443.667 389.399 444.281 387.156 443.077L366.715 432.099L383.341 418.344Z" fill="white" stroke="black" stroke-width="0.75" stroke-linecap="round" stroke-linejoin="round"/>
<path d="M268.802 510.033C271.102 509.206 273.288 508.01 275.261 506.462L392.126 415.338C395.359 412.814 397.357 409.021 397.602 404.917C397.872 400.37 395.94 395.93 392.429 393.046L347.298 355.419C346.087 354.419 344.351 354.37 343.083 355.296L260.877 415.715C259.347 416.837 259.011 418.992 260.133 420.523C261.254 422.055 263.399 422.391 264.938 421.269L301.513 394.48C301.554 394.562 301.603 394.636 301.653 394.709L302.365 395.799C304.035 398.363 304.354 401.591 303.224 404.442C302.578 406.08 301.481 407.506 300.064 408.554L185.843 493.28C183.92 494.706 183.085 497.13 183.707 499.441C184.337 501.751 186.277 503.414 188.659 503.676L258.373 511.271C261.95 511.664 265.503 511.23 268.81 510.042L268.802 510.033ZM344.237 362.079L388.049 398.355C389.866 399.854 390.873 402.156 390.734 404.507C390.611 406.629 389.572 408.595 387.902 409.906L271.036 501.03C267.631 503.684 263.399 504.889 259.109 504.422L192.188 497.13L304.158 414.076C306.605 412.266 308.488 409.808 309.609 406.973C311.558 402.058 311.165 396.151 308.283 391.719L307.571 390.629C307.448 390.441 307.317 390.277 307.17 390.122L344.237 362.079Z" fill="white" stroke="black" stroke-width="0.75" stroke-linecap="round" stroke-linejoin="round"/>
<path d="M302.355 395.799L301.512 394.48L307.177 390.122L308.29 391.719C309.575 393.702 310.205 396.241 310.549 398.519L303.247 404.376C304.344 401.55 304.017 398.347 302.363 395.799H302.355Z" fill="#62281A" stroke="black" stroke-width="0.75" stroke-linecap="round" stroke-linejoin="round"/>
<path d="M370.661 153.443C373.911 152.272 375.843 148.7 375.049 145.005C374.181 140.95 370.367 138.263 366.535 139.017L250.309 161.8C246.478 162.553 244.071 166.453 244.939 170.508C245.806 174.563 249.621 177.251 253.452 176.497L369.679 153.714C370.015 153.648 370.342 153.558 370.661 153.443Z" fill="#62281A" stroke="black" stroke-width="0.75" stroke-linecap="round" stroke-linejoin="round"/>
<path d="M352.104 193.807C352.832 193.545 353.315 192.816 353.233 192.013L350.884 168.689C350.426 164.11 352.546 159.735 356.426 157.261L372.102 147.291C372.905 146.783 373.142 145.718 372.634 144.915C372.127 144.112 371.063 143.883 370.26 144.383L354.584 154.353C349.599 157.523 346.873 163.143 347.462 169.025L349.812 192.349C349.91 193.291 350.753 193.988 351.694 193.889C351.842 193.873 351.973 193.84 352.104 193.799V193.807Z" fill="white" stroke="black" stroke-width="0.75" stroke-linecap="round" stroke-linejoin="round"/>
<path d="M228.59 444.314C228.753 444.257 228.909 444.175 229.048 444.068L367.263 339.501C367.737 339.14 367.999 338.55 367.934 337.952L353.223 192.013C353.125 191.071 352.282 190.375 351.341 190.473C350.391 190.563 349.712 191.415 349.802 192.357L364.414 337.338L227.452 440.955L121.294 437.072L43.6078 350.888C42.9692 350.184 41.8887 350.126 41.1765 350.765C40.4725 351.404 40.4152 352.486 41.0537 353.198L119.231 439.923C119.542 440.267 119.984 440.472 120.443 440.488L227.935 444.421C228.156 444.421 228.377 444.396 228.581 444.322L228.59 444.314Z" fill="white" stroke="black" stroke-width="0.75" stroke-linecap="round" stroke-linejoin="round"/>
<path d="M279.988 156.268L204.954 116.642C202.039 115.102 199.412 115.02 197.398 116.142C194.754 117.609 184.145 126.8 183.891 126.989C183.858 127.013 183.834 127.038 183.801 127.063C185.896 125.416 188.835 125.277 192.151 127.03L267.185 166.656C273.922 170.22 279.66 180.239 279.996 189.038L283.025 268.799C283.18 272.789 282.19 275.845 280.438 277.655C283.999 274.821 293.036 267.505 293.397 267.103C295.05 265.268 295.975 262.278 295.828 258.411L292.799 178.65C292.463 169.851 286.733 159.832 279.988 156.268Z" fill="#005FF7" stroke="black" stroke-width="0.75" stroke-miterlimit="10"/>
<path d="M280.316 197.378L280.66 206.521L293.553 198.402L293.201 189.259L280.316 197.378Z" fill="white" stroke="black" stroke-width="0.75" stroke-miterlimit="10"/>
<path d="M293.831 205.841L280.938 213.959L281.118 218.522L294.003 210.412L293.831 205.841Z" fill="white" stroke="black" stroke-width="0.75" stroke-miterlimit="10"/>
<path d="M271.425 278.286L196.391 238.659C189.654 235.096 183.915 225.076 183.579 216.278L180.551 136.517C180.215 127.718 185.413 123.466 192.15 127.03L267.184 166.656C273.922 170.22 279.66 180.239 279.996 189.038L283.024 268.799C283.36 277.598 278.162 281.85 271.425 278.286Z" fill="white" stroke="black" stroke-width="0.75" stroke-miterlimit="10"/>
<path d="M251.924 191.021C253.586 189.964 255.076 189.022 256.557 188.088C256.729 187.981 256.893 187.858 257.089 187.793C257.851 187.547 258.899 188.546 259.103 189.718C259.161 190.046 259.169 190.365 259.177 190.676C259.406 196.722 259.635 202.768 259.865 208.814C259.93 210.649 259.619 210.838 257.99 209.978C252.603 207.135 247.217 204.292 241.831 201.441C241.675 201.359 241.528 201.277 241.372 201.195C240.766 200.884 240.259 200.409 239.989 199.606C239.727 198.803 239.931 198.394 240.349 198.14C241.765 197.271 245.097 195.436 245.392 195.387C240.693 187.981 235.462 182.91 229.47 180.444C221.709 177.249 216.576 179.248 213.826 185.687C213.564 186.302 213.13 186.466 212.361 186.056C209.872 184.721 207.383 183.426 204.887 182.099C203.741 181.485 203.184 180.411 203.454 179.346C205.484 171.236 210.265 166.91 217.796 166.501C228.356 165.919 242.174 175.537 251.261 189.734C251.498 190.111 251.662 190.537 251.908 191.037L251.924 191.021Z" fill="#77B1F7" stroke="black" stroke-width="0.75" stroke-miterlimit="10"/>
<path d="M211.485 214.385C209.987 215.336 208.505 216.278 207.015 217.22C206.843 217.326 206.68 217.449 206.483 217.515C205.714 217.761 204.682 216.777 204.461 215.598C204.404 215.27 204.396 214.951 204.379 214.639C204.15 208.593 203.921 202.547 203.692 196.501C203.626 194.666 203.937 194.47 205.558 195.33C210.945 198.173 216.331 201.015 221.717 203.866C221.898 203.956 222.069 204.055 222.25 204.153C222.831 204.464 223.306 204.948 223.559 205.701C223.813 206.455 223.649 206.897 223.256 207.143C221.824 208.028 218.468 209.896 218.206 209.945C220.801 214.197 223.608 217.58 226.826 220.284C232.343 224.912 237.533 226.985 242.256 226.158C245.76 225.543 248.241 223.438 249.657 219.85C250.033 218.899 250.303 218.817 251.417 219.407C253.807 220.669 256.189 221.922 258.58 223.192C259.832 223.856 260.356 224.896 260.069 226.059C258.67 231.827 255.747 235.767 251.171 237.66C245.334 240.077 238.45 238.889 230.599 234.137C223.412 229.787 217.207 223.323 211.878 215.008C211.763 214.836 211.649 214.672 211.468 214.41L211.485 214.385Z" fill="#77B1F7" stroke="black" stroke-width="0.75" stroke-miterlimit="10"/>
<path d="M228.589 444.314C228.663 444.29 228.745 444.257 228.819 444.216C229.654 443.774 229.973 442.725 229.531 441.889L175.658 340.59C175.216 339.755 174.176 339.427 173.333 339.878C172.498 340.32 172.179 341.369 172.621 342.204L226.494 443.503C226.903 444.265 227.804 444.601 228.589 444.314Z" fill="white" stroke="black" stroke-width="0.75" stroke-linecap="round" stroke-linejoin="round"/>
<path d="M201.029 443.094C201.143 443.053 201.25 443.003 201.356 442.93C202.159 442.43 202.404 441.365 201.905 440.562L142.564 345.604C142.056 344.801 140.992 344.555 140.198 345.055C139.395 345.555 139.15 346.62 139.649 347.423L198.99 442.381C199.424 443.077 200.284 443.356 201.029 443.085V443.094Z" fill="white" stroke="black" stroke-width="0.75" stroke-linecap="round" stroke-linejoin="round"/>
<path d="M170.307 442.528C170.438 442.479 170.569 442.414 170.683 442.332C171.469 441.799 171.674 440.734 171.15 439.939L109.885 349.061C109.353 348.275 108.281 348.07 107.495 348.594C106.709 349.127 106.504 350.192 107.028 350.987L168.293 441.865C168.743 442.528 169.578 442.782 170.299 442.52L170.307 442.528Z" fill="white" stroke="black" stroke-width="0.75" stroke-linecap="round" stroke-linejoin="round"/>
<path d="M142.866 440.3C143.021 440.243 143.177 440.161 143.316 440.062C144.077 439.497 144.233 438.416 143.66 437.654L77.4011 349.061C76.8281 348.299 75.7475 348.144 74.9944 348.717C74.2331 349.291 74.0775 350.364 74.6506 351.126L140.909 439.718C141.376 440.341 142.178 440.554 142.866 440.308V440.3Z" fill="white" stroke="black" stroke-width="0.75" stroke-linecap="round" stroke-linejoin="round"/>
<path d="M251.904 424.284C251.904 424.284 251.961 424.259 251.994 424.251C252.87 423.882 253.279 422.867 252.903 421.998L207.691 315.161C207.322 314.285 206.332 313.85 205.439 314.252C204.563 314.621 204.154 315.628 204.531 316.505L249.743 423.342C250.103 424.186 251.052 424.595 251.904 424.292V424.284Z" fill="white" stroke="black" stroke-width="0.75" stroke-linecap="round" stroke-linejoin="round"/>
<path d="M274.304 408.464C275.18 408.145 275.646 407.186 275.351 406.293L236.287 290.936C235.984 290.035 235.01 289.552 234.11 289.863C233.234 290.117 232.726 291.141 233.037 292.042L272.11 407.399C272.413 408.3 273.387 408.784 274.287 408.481C274.295 408.481 274.312 408.481 274.32 408.472L274.304 408.464Z" fill="white" stroke="black" stroke-width="0.75" stroke-linecap="round" stroke-linejoin="round"/>
<path d="M296.087 390.916C296.947 390.605 297.422 389.671 297.143 388.794L260.731 270.062C260.453 269.153 259.487 268.645 258.587 268.923C257.662 269.186 257.17 270.16 257.449 271.07L293.861 389.802C294.139 390.711 295.105 391.219 296.005 390.941C296.03 390.933 296.063 390.924 296.087 390.916Z" fill="white" stroke="black" stroke-width="0.75" stroke-linecap="round" stroke-linejoin="round"/>
<path d="M315.922 376.022C316.749 375.728 317.224 374.843 317.003 373.974L285.085 250.228C284.848 249.311 283.906 248.754 282.99 248.991C282.081 249.221 281.516 250.163 281.753 251.089L313.671 374.835C313.909 375.752 314.85 376.309 315.767 376.072C315.816 376.055 315.873 376.039 315.922 376.022Z" fill="white" stroke="black" stroke-width="0.75" stroke-linecap="round" stroke-linejoin="round"/>
<path d="M334.494 363.021C335.272 362.743 335.755 361.923 335.599 361.088L310.525 228.093C310.353 227.159 309.453 226.544 308.52 226.724C307.586 226.896 306.972 227.798 307.152 228.732L332.227 361.735C332.398 362.669 333.299 363.283 334.232 363.103C334.322 363.087 334.412 363.062 334.494 363.029V363.021Z" fill="white" stroke="black" stroke-width="0.75" stroke-linecap="round" stroke-linejoin="round"/>
<path d="M351.326 349.209C352.062 348.947 352.545 348.201 352.447 347.39L336.157 207.833C336.05 206.891 335.191 206.211 334.249 206.325C333.308 206.44 332.628 207.292 332.743 208.234L349.033 347.791C349.14 348.734 349.999 349.414 350.941 349.299C351.072 349.283 351.203 349.25 351.326 349.209Z" fill="white" stroke="black" stroke-width="0.75" stroke-linecap="round" stroke-linejoin="round"/>
<path d="M192.704 378.234C192.753 378.218 192.794 378.202 192.835 378.185C198.328 375.719 344.106 250.433 360.716 236.162C361.436 235.539 361.518 234.458 360.896 233.737C360.274 233.016 359.193 232.926 358.473 233.557C313.777 271.987 196.633 372.319 191.394 375.064C191.386 375.064 191.378 375.064 191.37 375.072C186.703 376.752 113.323 378.906 65.0576 379.938C64.1081 379.963 63.3549 380.749 63.3795 381.692C63.3959 382.642 64.1899 383.396 65.1313 383.371C85.3511 382.937 185.926 380.668 192.696 378.234H192.704Z" fill="white" stroke="black" stroke-width="0.75" stroke-linecap="round" stroke-linejoin="round"/>
<path d="M210.582 414.445C212.768 413.658 320.972 326.131 367.396 288.536C368.132 287.938 368.247 286.857 367.649 286.119C367.052 285.382 365.971 285.267 365.235 285.865C313.555 327.712 215.527 406.924 209.395 411.184C203.992 411.643 136.76 411.012 92.0798 410.455C91.1303 410.447 90.3526 411.201 90.3362 412.151C90.3198 413.101 91.0811 413.879 92.0307 413.896C135.393 414.428 208.454 415.215 210.574 414.453L210.582 414.445Z" fill="white" stroke="black" stroke-width="0.75" stroke-linecap="round" stroke-linejoin="round"/>
<path d="M166.606 348.742C166.974 348.611 167.326 348.406 167.637 348.152L357.932 190.408C359.397 189.195 359.602 187.024 358.391 185.566C357.179 184.099 355.01 183.895 353.553 185.107L164.134 342.122L42.1687 348.594C40.2695 348.693 38.8205 350.315 38.9188 352.215C39.017 354.116 40.6379 355.566 42.537 355.468L165.64 348.93C165.976 348.914 166.311 348.848 166.622 348.734L166.606 348.742Z" fill="white" stroke="black" stroke-width="0.75" stroke-linecap="round" stroke-linejoin="round"/>
<path d="M228.402 447.698C228.77 447.567 229.122 447.362 229.433 447.108L373.427 337.854C374.892 336.642 375.097 334.471 373.885 333.012C372.674 331.546 370.505 331.341 369.048 332.554L225.929 441.078L114.86 433.902C112.961 434 111.512 435.622 111.61 437.523C111.708 439.423 113.329 440.873 115.228 440.775L227.436 447.894C227.771 447.878 228.107 447.812 228.418 447.698H228.402Z" fill="white" stroke="black" stroke-width="0.75" stroke-linecap="round" stroke-linejoin="round"/>
<path d="M163.867 314.522C163.376 314.571 162.868 314.571 162.352 314.522L157.997 314.08C157.49 314.031 156.99 314.031 156.499 314.08C155.983 314.137 155.484 314.244 155.001 314.399L146.504 317.201C146.987 317.045 147.486 316.931 148.002 316.882C148.493 316.832 148.992 316.832 149.5 316.882L153.855 317.324C154.379 317.373 154.878 317.373 155.369 317.324C155.623 317.299 155.877 317.258 156.123 317.201C156.368 317.144 156.614 317.078 156.851 317.004L165.348 314.203C164.874 314.358 164.382 314.465 163.867 314.522Z" fill="#500E4C" stroke="black" stroke-width="0.75" stroke-miterlimit="10"/>
<path d="M115.888 218.991L118.418 215.296C119.4 213.854 120.726 212.896 122.175 212.42L113.678 215.222C112.229 215.697 110.903 216.656 109.921 218.098L107.391 221.793C106.425 223.202 105.099 224.185 103.617 224.668L112.114 221.866C113.596 221.375 114.93 220.4 115.888 218.991Z" fill="#500E4C" stroke="black" stroke-width="0.75" stroke-miterlimit="10"/>
<path d="M136.616 327.343L133.014 324.402C131.271 322.977 129.183 322.362 127.202 322.575C126.695 322.624 126.195 322.731 125.704 322.895L117.207 325.697C117.698 325.533 118.198 325.426 118.705 325.377C120.686 325.172 122.774 325.787 124.517 327.204L128.119 330.145C129.912 331.611 131.983 332.177 133.915 331.98C134.431 331.923 134.938 331.816 135.429 331.652L143.927 328.851C143.435 329.014 142.928 329.121 142.412 329.178C140.472 329.383 138.409 328.81 136.616 327.343Z" fill="#500E4C" stroke="black" stroke-width="0.75" stroke-miterlimit="10"/>
<path d="M107.694 322.42L105.991 317.914C104.616 314.285 101.308 311.901 97.8129 312.015L93.4742 312.155C88.1942 312.327 83.8801 306.944 84.7724 301.3L85.5091 296.663C86.0985 292.927 84.3794 289.044 81.2605 287.061L77.3885 284.604C72.6733 281.613 71.5518 274.715 75.1291 270.701L78.0679 267.4C80.4337 264.745 80.8512 260.592 79.0912 257.151L76.9137 252.874C74.8835 248.893 75.8331 244.313 78.6819 241.888L86.7452 239.226C89.7577 238.235 91.8452 235.318 92.0007 231.779L92.2054 227.044C92.32 224.381 93.4988 222.186 95.226 220.809C95.9055 220.269 96.6668 219.859 97.4772 219.589L88.98 222.391C86.0821 223.349 83.8719 226.143 83.7082 229.854L83.5035 234.589C83.3971 237.088 82.3247 239.275 80.6465 240.692L72.575 243.355C67.9581 244.879 65.887 250.744 68.4083 255.693L70.5858 259.969C72.3458 263.41 71.9283 267.563 69.5625 270.218L66.6237 273.519C63.0464 277.534 64.1679 284.432 68.8831 287.422L72.7551 289.879C75.874 291.862 77.5931 295.745 77.0037 299.481L76.267 304.118C75.3747 309.762 79.6888 315.145 84.9688 314.973L89.3075 314.833C92.8029 314.719 96.1101 317.111 97.4854 320.732L99.1881 325.238C100.703 329.236 104.386 331.472 107.89 331.104C108.389 331.054 108.881 330.948 109.372 330.784L117.869 327.982C117.386 328.146 116.887 328.244 116.387 328.302C112.884 328.662 109.2 326.434 107.685 322.436L107.694 322.42ZM78.7228 241.856C79.2877 241.389 79.918 240.995 80.6138 240.709C80.049 241.184 79.4105 241.569 78.7228 241.856Z" fill="#500E4C" stroke="black" stroke-width="0.75" stroke-miterlimit="10"/>
<path d="M178.102 274.248L174.942 270.742C172.396 267.916 171.717 263.729 173.264 260.395L175.18 256.258C177.504 251.228 174.672 244.821 169.466 243.355L165.184 242.151C161.738 241.176 159.118 237.907 158.709 234.073L158.202 229.313C157.661 224.193 153.339 220.523 148.943 220.981C148.362 221.039 147.781 221.17 147.208 221.383L143.164 222.858C142.599 223.062 142.026 223.193 141.453 223.251C138.669 223.537 135.796 222.194 133.954 219.613L131.187 215.738C129.264 213.043 126.374 211.814 123.672 212.101C121.642 212.314 119.727 213.371 118.409 215.304L115.879 218.999C114.602 220.867 112.679 221.981 110.599 222.202C109.371 222.333 108.086 222.145 106.85 221.62L102.7 219.859C101.431 219.318 100.162 219.146 98.9504 219.269C95.3485 219.646 92.3769 222.726 92.1886 227.052L91.984 231.787C91.8203 235.605 89.3972 238.702 86.0081 239.431L81.7923 240.348C76.6677 241.462 74.2365 247.68 76.8888 252.883L79.0663 257.159C80.8263 260.6 80.4088 264.753 78.043 267.408L75.1042 270.709C71.5269 274.724 72.6483 281.622 77.3636 284.612L81.2356 287.069C84.3545 289.052 86.0736 292.935 85.4842 296.671L84.7474 301.308C83.8552 306.952 88.1692 312.335 93.4493 312.163L97.7879 312.023C101.283 311.909 104.591 314.301 105.966 317.922L107.669 322.428C109.183 326.426 112.867 328.662 116.37 328.294C117.664 328.162 118.933 327.671 120.054 326.786L123.476 324.091C124.573 323.222 125.85 322.723 127.168 322.592C129.149 322.387 131.236 323.001 132.98 324.419L136.582 327.36C138.375 328.826 140.446 329.391 142.378 329.195C145.169 328.908 147.691 326.999 148.714 323.845L150.138 319.454C151.121 316.431 153.576 314.407 156.458 314.104C156.949 314.055 157.448 314.055 157.956 314.104L162.311 314.547C162.835 314.596 163.334 314.596 163.825 314.547C168.336 314.08 171.471 309.426 170.342 304.265L169.31 299.571C168.483 295.786 169.957 292.018 172.961 290.248L176.686 288.053C181.221 285.382 181.909 278.541 178.069 274.273L178.102 274.248Z" fill="#D848D1" stroke="black" stroke-width="0.75" stroke-miterlimit="10"/>
<path d="M147.956 282.965C147.776 280.065 145.434 277.935 142.61 278.074C142.373 278.082 142.144 278.115 141.914 278.156C141.685 278.197 141.472 278.254 141.259 278.328L139.598 278.877C140.023 278.738 140.474 278.648 140.948 278.623C143.781 278.484 146.114 280.622 146.294 283.514C146.359 284.571 146.13 285.554 145.68 286.381C145.582 286.562 145.475 286.734 145.361 286.889C145.123 287.217 144.853 287.512 144.542 287.766C144.084 288.151 143.543 288.454 142.954 288.651L144.616 288.102C146.72 287.405 148.111 285.374 147.956 282.965Z" fill="#F6BCF5" stroke="black" stroke-width="0.75" stroke-miterlimit="10"/>
<path d="M143.757 296.179C136.758 296.532 130.733 291.018 130.274 283.842C129.955 278.844 133.786 272.61 139.336 270.767L137.674 271.315C132.124 273.159 128.293 279.385 128.612 284.391C129.071 291.559 135.096 297.072 142.095 296.728C143.241 296.671 144.346 296.458 145.377 296.114L147.039 295.565C146 295.909 144.903 296.122 143.757 296.179Z" fill="#F6BCF5" stroke="black" stroke-width="0.75" stroke-miterlimit="10"/>
<path d="M155.592 282.588C155.134 275.42 149.109 269.906 142.109 270.25C135.11 270.603 129.904 278.05 130.272 283.842C130.731 291.01 136.756 296.523 143.755 296.179C150.754 295.827 156.042 289.757 155.592 282.588ZM143.255 288.356C140.423 288.495 138.09 286.365 137.91 283.465C137.73 280.565 139.776 278.213 142.601 278.074C145.433 277.935 147.766 280.073 147.946 282.965C148.126 285.865 146.08 288.216 143.247 288.356H143.255Z" fill="#F3F0F9" stroke="black" stroke-width="0.75" stroke-miterlimit="10"/>
<path d="M117.526 259.633C117.346 256.733 115.005 254.603 112.18 254.742C111.706 254.767 111.255 254.849 110.83 254.996L109.168 255.545C109.594 255.406 110.044 255.316 110.519 255.291C113.351 255.152 115.684 257.29 115.864 260.182C116.02 262.591 114.628 264.622 112.524 265.327L114.186 264.778C116.29 264.082 117.682 262.05 117.526 259.633Z" fill="#F6BCF5" stroke="black" stroke-width="0.75" stroke-miterlimit="10"/>
<path d="M135.906 245.518C135.472 245.657 135.112 245.976 134.899 246.394L110.324 295.262C109.694 296.507 110.643 297.998 112.018 297.933L115.669 297.752C115.825 297.752 115.981 297.711 116.128 297.67L117.79 297.122C117.642 297.171 117.487 297.195 117.331 297.203L113.68 297.384C112.305 297.449 111.355 295.958 111.986 294.713L136.56 245.845C136.773 245.419 137.142 245.108 137.567 244.969L135.906 245.518Z" fill="#F6BCF5" stroke="black" stroke-width="0.75" stroke-miterlimit="10"/>
<path d="M141.683 244.698C143.058 244.633 144.007 246.124 143.385 247.369L118.811 296.245C118.524 296.81 117.967 297.179 117.345 297.203L113.694 297.384C112.319 297.449 111.369 295.958 112 294.713L136.574 245.845C136.861 245.28 137.418 244.911 138.04 244.879L141.691 244.698H141.683Z" fill="#F3F0F9" stroke="black" stroke-width="0.75" stroke-miterlimit="10"/>
<path d="M113.327 272.847C106.328 273.2 100.303 267.686 99.8444 260.51C99.5251 255.512 103.356 249.278 108.906 247.443L107.245 247.992C101.694 249.835 97.8634 256.061 98.1826 261.059C98.641 268.227 104.666 273.74 111.665 273.396C112.811 273.339 113.916 273.126 114.948 272.782L116.61 272.233C115.57 272.577 114.473 272.79 113.327 272.847Z" fill="#F6BCF5" stroke="black" stroke-width="0.75" stroke-miterlimit="10"/>
<path d="M125.162 259.256C124.704 252.088 118.679 246.574 111.68 246.919C104.681 247.271 99.4742 254.718 99.8426 260.51C100.301 267.678 106.326 273.192 113.325 272.847C120.324 272.495 125.613 266.425 125.162 259.256ZM112.826 265.024C110.002 265.163 107.66 263.025 107.48 260.133C107.3 257.233 109.347 254.882 112.171 254.742C115.003 254.603 117.336 256.741 117.516 259.633C117.697 262.533 115.65 264.884 112.826 265.024Z" fill="#F3F0F9" stroke="black" stroke-width="0.75" stroke-miterlimit="10"/>
<path d="M116.896 45.8528L123.944 52.8327L122.463 58.6493L115.406 51.6694L116.896 45.8528Z" fill="#AE472F" stroke="black" stroke-width="0.75" stroke-linejoin="round"/>
<path d="M115.387 51.6858L122.435 58.6657L110.974 61.8444L103.918 54.8644L115.387 51.6858Z" fill="#E6B2C5" stroke="black" stroke-width="0.75" stroke-linejoin="round"/>
<path d="M116.868 45.8691L115.387 51.6857L103.918 54.8644L105.408 49.0478L116.868 45.8691Z" fill="#EFB0A3" stroke="black" stroke-width="0.75" stroke-linejoin="round"/>
<path d="M80.8846 102.749L87.9328 109.729L86.533 115.226L79.4766 108.246L80.8846 102.749Z" fill="#AE472F" stroke="black" stroke-width="0.75" stroke-linejoin="round"/>
<path d="M65.2731 122.706L72.3295 129.685L66.5174 131.299L59.4609 124.319L65.2731 122.706Z" fill="#F9DFDA" stroke="black" stroke-width="0.75" stroke-linejoin="round"/>
<path d="M68.0895 111.703L75.1459 118.683L72.3299 129.685L65.2734 122.706L68.0895 111.703Z" fill="#DBA1BA" stroke="black" stroke-width="0.75" stroke-linejoin="round"/>
<path d="M79.3949 108.566L86.4513 115.545L75.1463 118.683L68.0898 111.703L79.3949 108.566Z" fill="#E6B2C5" stroke="black" stroke-width="0.75" stroke-linejoin="round"/>
<path d="M115.389 51.6858L122.437 58.6657L109.217 110.401L102.16 103.421L115.389 51.6858Z" fill="#929292" stroke="black" stroke-width="0.75" stroke-linejoin="round"/>
<path d="M121.192 50.0718L128.248 57.0518L122.502 79.5399L115.445 72.5599L121.192 50.0718Z" fill="#AE472F" stroke="black" stroke-width="0.75" stroke-linejoin="round"/>
<path d="M79.3924 108.566L86.4488 115.545L85.0408 121.051L77.9844 114.063L79.3924 108.566Z" fill="#929292" stroke="black" stroke-width="0.75" stroke-linejoin="round"/>
<path d="M71.0856 121.092L78.142 128.08L72.3299 129.685L65.2734 122.706L71.0856 121.092Z" fill="#B2B2B2" stroke="black" stroke-width="0.75" stroke-linejoin="round"/>
<path d="M83.7965 112.457L90.853 119.437L85.0408 121.051L77.9844 114.071L83.7965 112.457Z" fill="#E6B2C5" stroke="black" stroke-width="0.75" stroke-linejoin="round"/>
<path d="M71.0836 121.092L78.1401 128.08L76.6502 133.896L69.5938 126.916L71.0836 121.092Z" fill="#DBA1BA" stroke="black" stroke-width="0.75" stroke-linejoin="round"/>
<path d="M69.5969 126.917L76.6534 133.896L70.8412 135.51L63.793 128.53L69.5969 126.917Z" fill="#F9DFDA" stroke="black" stroke-width="0.75" stroke-linejoin="round"/>
<path d="M71.0868 121.092L69.5969 126.916L63.793 128.53L65.2747 122.706L71.0868 121.092Z" fill="#EFB0A3" stroke="black" stroke-width="0.75" stroke-linejoin="round"/>
<path d="M69.596 126.917L76.6524 133.896L76.5951 134.118L69.5469 127.138L69.596 126.917Z" fill="#929292" stroke="black" stroke-width="0.75" stroke-linejoin="round"/>
<path d="M69.5465 127.138L69.3828 126.974L69.5956 126.917L69.5465 127.138Z" fill="#ECECEC" stroke="black" stroke-width="0.75" stroke-linejoin="round"/>
<path d="M75.4059 125.303L82.4623 132.282L76.6502 133.896L69.5938 126.916L75.4059 125.303Z" fill="#B2B2B2" stroke="black" stroke-width="0.75" stroke-linejoin="round"/>
<path d="M127.536 69.2093L134.593 76.1892L133.111 82.0058L126.055 75.0259L127.536 69.2093Z" fill="#AE472F" stroke="black" stroke-width="0.75" stroke-linejoin="round"/>
<path d="M126.056 75.0259L133.113 82.0058L121.013 85.3647L113.957 78.3848L126.056 75.0259Z" fill="#E6B2C5" stroke="black" stroke-width="0.75" stroke-linejoin="round"/>
<path d="M126.013 75.1815L133.07 82.1614L131.58 87.9862L124.523 80.9981L126.013 75.1815Z" fill="#929292" stroke="black" stroke-width="0.75" stroke-linejoin="round"/>
<path d="M72.4117 137.255L79.419 144.186L73.6068 145.8L66.5586 138.82L72.4117 137.255Z" fill="#F9DFDA" stroke="black" stroke-width="0.75" stroke-linejoin="round"/>
<path d="M75.4085 125.303L82.465 132.282L79.4197 144.186L72.3633 137.206L75.4085 125.303Z" fill="#DBA1BA" stroke="black" stroke-width="0.75" stroke-linejoin="round"/>
<path d="M75.4078 125.303L72.4117 137.255L66.5586 138.82L69.5956 126.916L75.4078 125.303Z" fill="#EFB0A3" stroke="black" stroke-width="0.75" stroke-linejoin="round"/>
<path d="M107.972 101.807L115.029 108.787L109.217 110.401L102.16 103.421L107.972 101.807Z" fill="#E6B2C5" stroke="black" stroke-width="0.75" stroke-linejoin="round"/>
<path d="M121.193 50.0718L115.446 72.5599L127.537 69.2093L126.055 75.0259L113.956 78.3847L107.972 101.807L102.16 103.421L115.389 51.6857L121.193 50.0718Z" fill="#EFB0A3" stroke="black" stroke-width="0.75" stroke-linejoin="round"/>
<path d="M113.957 78.3848L121.013 85.3647L115.029 108.787L107.973 101.807L113.957 78.3848Z" fill="#DBA1BA" stroke="black" stroke-width="0.75" stroke-linejoin="round"/>
<path d="M83.7991 112.457L90.8556 119.437L85.9193 138.73L78.8711 131.75L83.7991 112.457Z" fill="#929292" stroke="black" stroke-width="0.75" stroke-linejoin="round"/>
<path d="M77.8467 135.748L84.9031 142.728L79.3611 144.268L72.3047 137.288L77.8467 135.748Z" fill="#B2B2B2" stroke="black" stroke-width="0.75" stroke-linejoin="round"/>
<path d="M84.6832 130.136L91.7397 137.116L85.9193 138.73L78.8711 131.75L84.6832 130.136Z" fill="#E6B2C5" stroke="black" stroke-width="0.75" stroke-linejoin="round"/>
<path d="M103.921 54.8644L110.977 61.8443L91.74 137.116L84.6836 130.136L103.921 54.8644Z" fill="#DBA1BA" stroke="black" stroke-width="0.75" stroke-linejoin="round"/>
<path d="M103.92 54.8644L84.6824 130.136L78.8702 131.75L83.7983 112.457L77.9861 114.071L79.3941 108.565L68.0891 111.703L65.2731 122.706L59.4609 124.319L62.277 113.317L63.7668 107.492L69.579 105.878L80.884 102.749L79.476 108.246L85.2882 106.64L98.1076 56.4783L103.92 54.8644Z" fill="#EFB0A3" stroke="black" stroke-width="0.75" stroke-linejoin="round"/>
<path d="M124.524 80.9981L131.581 87.9862L127.283 104.805L120.227 97.8253L124.524 80.9981Z" fill="#929292" stroke="black" stroke-width="0.75" stroke-linejoin="round"/>
<path d="M141.649 76.2548L148.697 83.2347L137.392 86.3724L130.336 79.3924L141.649 76.2548Z" fill="#E6B2C5" stroke="black" stroke-width="0.75" stroke-linejoin="round"/>
<path d="M143.13 70.4381L150.187 77.418L148.697 83.2346L141.648 76.2547L143.13 70.4381Z" fill="#AE472F" stroke="black" stroke-width="0.75" stroke-linejoin="round"/>
<path d="M77.8456 135.748L84.9021 142.728L81.865 154.607L74.8086 147.627L77.8456 135.748Z" fill="#DBA1BA" stroke="black" stroke-width="0.75" stroke-linejoin="round"/>
<path d="M77.8457 135.748L74.8086 147.627L74.8004 147.66L68.9883 149.273L72.0335 137.362L72.3037 137.288L77.8457 135.748Z" fill="#EFB0A3" stroke="black" stroke-width="0.75" stroke-linejoin="round"/>
<path d="M74.809 147.627L81.8654 154.607L81.8572 154.64L74.8008 147.66L74.809 147.627Z" fill="#DBA1BA" stroke="black" stroke-width="0.75" stroke-linejoin="round"/>
<path d="M74.8004 147.66L81.8569 154.64L76.0447 156.253L68.9883 149.274L74.8004 147.66Z" fill="#F9DFDA" stroke="black" stroke-width="0.75" stroke-linejoin="round"/>
<path d="M130.337 79.3924L137.393 86.3723L133.096 103.199L126.039 96.2196L130.337 79.3924Z" fill="#DBA1BA" stroke="black" stroke-width="0.75" stroke-linejoin="round"/>
<path d="M143.131 70.4381L141.65 76.2547L130.336 79.3924L126.039 96.2196L120.227 97.8253L124.524 81.0063L126.014 75.1815L131.826 73.5758L143.131 70.4381Z" fill="#EFB0A3" stroke="black" stroke-width="0.75" stroke-linejoin="round"/>
<path d="M126.039 96.2196L133.095 103.2L127.283 104.805L120.227 97.8253L126.039 96.2196Z" fill="#E6B2C5" stroke="black" stroke-width="0.75" stroke-linejoin="round"/>
<path d="M141.65 76.2548L148.698 83.2347L147.217 89.0513L140.16 82.0714L141.65 76.2548Z" fill="#929292" stroke="black" stroke-width="0.75" stroke-linejoin="round"/>
<path d="M80.6122 146.046L87.6686 153.026L81.8728 154.631L74.8164 147.651L80.6122 146.046Z" fill="#B2B2B2" stroke="black" stroke-width="0.75" stroke-linejoin="round"/>
<path d="M151.629 78.8927L158.686 85.8726L153.029 87.4456L145.973 80.4656L151.629 78.8927Z" fill="#E6B2C5" stroke="black" stroke-width="0.75" stroke-linejoin="round"/>
<path d="M153.119 73.0761L160.167 80.056L158.685 85.8726L151.629 78.8927L153.119 73.0761Z" fill="#AE472F" stroke="black" stroke-width="0.75" stroke-linejoin="round"/>
<path d="M80.6152 146.046L77.57 157.949L71.7578 159.563L74.8031 147.66L80.6152 146.046Z" fill="#EFB0A3" stroke="black" stroke-width="0.75" stroke-linejoin="round"/>
<path d="M77.57 157.949L84.6264 164.929L78.8143 166.543L71.7578 159.563L77.57 157.949Z" fill="#F9DFDA" stroke="black" stroke-width="0.75" stroke-linejoin="round"/>
<path d="M80.6156 146.046L87.672 153.026L84.6267 164.929L77.5703 157.949L80.6156 146.046Z" fill="#DBA1BA" stroke="black" stroke-width="0.75" stroke-linejoin="round"/>
<path d="M140.159 82.0714L147.215 89.0513L142.869 106.034L135.82 99.0542L140.159 82.0714Z" fill="#929292" stroke="black" stroke-width="0.75" stroke-linejoin="round"/>
<path d="M145.971 80.4656L153.028 87.4456L148.689 104.428L141.633 97.4485L145.971 80.4656Z" fill="#DBA1BA" stroke="black" stroke-width="0.75" stroke-linejoin="round"/>
<path d="M151.627 78.8927L158.683 85.8726L157.193 91.6892L150.137 84.7093L151.627 78.8927Z" fill="#929292" stroke="black" stroke-width="0.75" stroke-linejoin="round"/>
<path d="M83.3825 156.335L90.4389 163.315L84.6267 164.929L77.5703 157.949L83.3825 156.335Z" fill="#B2B2B2" stroke="black" stroke-width="0.75" stroke-linejoin="round"/>
<path d="M141.632 97.4484L148.689 104.428L142.869 106.034L135.82 99.0541L141.632 97.4484Z" fill="#E6B2C5" stroke="black" stroke-width="0.75" stroke-linejoin="round"/>
<path d="M153.118 73.0761L151.628 78.8927L145.971 80.4656L141.632 97.4485L135.82 99.0542L140.159 82.0714L141.649 76.2548L147.461 74.6409L153.118 73.0761Z" fill="#EFB0A3" stroke="black" stroke-width="0.75" stroke-linejoin="round"/>
<path d="M157.431 77.287L155.949 83.1036L150.137 84.7093L151.627 78.8927L157.431 77.287Z" fill="#EFB0A3" stroke="black" stroke-width="0.75" stroke-linejoin="round"/>
<path d="M155.949 83.1036L162.997 90.0835L157.193 91.6892L150.137 84.7093L155.949 83.1036Z" fill="#E6B2C5" stroke="black" stroke-width="0.75" stroke-linejoin="round"/>
<path d="M157.431 77.287L164.487 84.2669L162.997 90.0835L155.949 83.1036L157.431 77.287Z" fill="#AE472F" stroke="black" stroke-width="0.75" stroke-linejoin="round"/>
<path d="M83.3813 156.335L90.4378 163.315L87.6463 174.236L80.5898 167.256L83.3813 156.335Z" fill="#DBA1BA" stroke="black" stroke-width="0.75" stroke-linejoin="round"/>
<path d="M155.95 83.1036L162.998 90.0835L152.896 129.628L145.84 122.648L155.95 83.1036Z" fill="#929292" stroke="black" stroke-width="0.75" stroke-linejoin="round"/>
<path d="M145.839 122.648L152.896 129.628L147.084 131.234L140.027 124.254L145.839 122.648Z" fill="#B2B2B2" stroke="black" stroke-width="0.75" stroke-linejoin="round"/>
<path d="M161.762 81.4897L168.819 88.4696L158.709 128.014L151.652 121.034L161.762 81.4897Z" fill="#E36D59" stroke="black" stroke-width="0.75" stroke-linejoin="round"/>
<path d="M161.762 81.4897L151.652 121.034L145.84 122.648L155.95 83.1036L161.762 81.4897Z" fill="#EFB0A3" stroke="black" stroke-width="0.75" stroke-linejoin="round"/>
<path d="M151.652 121.034L158.708 128.014L152.896 129.628L145.84 122.648L151.652 121.034Z" fill="#F9DFDA" stroke="black" stroke-width="0.75" stroke-linejoin="round"/>
<path d="M135.656 141.36L142.712 148.34L136.9 149.953L129.844 142.974L135.656 141.36Z" fill="#B2B2B2" stroke="black" stroke-width="0.75" stroke-linejoin="round"/>
<path d="M140.028 124.254L147.084 131.234L142.713 148.34L135.656 141.36L140.028 124.254Z" fill="#929292" stroke="black" stroke-width="0.75" stroke-linejoin="round"/>
<path d="M129.844 142.974L136.901 149.953L133.978 161.39L126.922 154.41L129.844 142.974Z" fill="#929292" stroke="black" stroke-width="0.75" stroke-linejoin="round"/>
<path d="M150.139 84.7093L155.951 83.1036L145.841 122.648L140.029 124.254L135.658 141.36L129.846 142.974L126.923 154.41L80.5897 167.256L83.3812 156.335L77.569 157.949L80.6142 146.046L74.8185 147.651L77.8473 135.748L72.3053 137.288L66.5587 138.82L72.4117 137.255L75.4079 125.303L69.5957 126.917L71.0856 121.092L65.2734 122.706L68.0895 111.703L79.3945 108.566L77.9865 114.063L83.7986 112.457L78.8706 131.75L84.6827 130.136L103.92 54.8644L115.389 51.6858L102.16 103.421L107.972 101.807L113.956 78.3848L125.556 75.1652L126.014 75.1816L124.525 80.9982L120.227 97.8253L126.039 96.2196L130.337 79.3925L141.65 76.2548L140.16 82.0714L135.821 99.0542L141.634 97.4403L145.972 80.4657L151.629 78.8927L150.139 84.7093Z" fill="white" stroke="black" stroke-width="0.75" stroke-linejoin="round"/>
<path d="M126.923 154.41L133.98 161.39L87.6463 174.236L80.5898 167.256L126.923 154.41Z" fill="#B2B2B2" stroke="black" stroke-width="0.75" stroke-linejoin="round"/>
<path d="M145.84 122.648L141.468 139.746L135.656 141.36L140.028 124.254L145.84 122.648Z" fill="#EFB0A3" stroke="black" stroke-width="0.75" stroke-linejoin="round"/>
<path d="M141.468 139.746L148.517 146.726L142.713 148.34L135.656 141.36L141.468 139.746Z" fill="#F9DFDA" stroke="black" stroke-width="0.75" stroke-linejoin="round"/>
<path d="M145.817 122.665L152.873 129.645L148.502 146.75L141.445 139.77L145.817 122.665Z" fill="#E36D59" stroke="black" stroke-width="0.75" stroke-linejoin="round"/>
<path d="M79.1715 172.818L73.3594 174.432L80.4158 181.412L86.2198 179.798L138.365 165.339L131.309 158.359L79.1715 172.818Z" fill="#F9DFDA" stroke="black" stroke-width="0.75" stroke-linejoin="round"/>
<path d="M135.656 141.36L132.733 152.796L131.44 157.835L131.309 158.359L79.1715 172.818L73.3594 174.432L74.7756 168.87L77.567 157.949L83.3792 156.335L80.5877 167.256L126.921 154.41L129.844 142.974L135.656 141.36Z" fill="#EFB0A3" stroke="black" stroke-width="0.75" stroke-linejoin="round"/>
<path d="M132.737 152.796L131.443 157.835L131.312 158.359L138.369 165.339L138.5 164.814L139.785 159.776L142.716 148.34L135.659 141.36L132.737 152.796Z" fill="#E36D59" stroke="black" stroke-width="0.75" stroke-linejoin="round"/>
</g>
<defs>
<clipPath id="clip0_8803_6332">
<rect width="920" height="740" fill="white"/>
</clipPath>
</defs>
</svg>
